<svg width="120" height="120" viewBox="0 0 120 120" fill="none" xmlns="http://www.w3.org/2000/svg">
<path d="M118.5 60C118.5 92.3087 92.3087 118.5 60 118.5C27.6913 118.5 1.5 92.3087 1.5 60C1.5 27.6913 27.6913 1.5 60 1.5C92.3087 1.5 118.5 27.6913 118.5 60Z" fill="#FFFBE7" stroke="#26486B" stroke-width="3"/>
<path d="M41.9988 48.784C41.9988 49.6613 41.6068 50.6133 40.8228 51.64C40.0388 52.648 39.0681 53.5253 37.9108 54.272C36.7534 55 35.6614 55.4293 34.6348 55.56V60.6H32.7588V55.532C31.5081 55.4387 30.2014 55.2707 28.8388 55.028C27.4948 54.7853 26.5148 54.5333 25.8988 54.272V48.56H27.6068C28.3161 49.7547 29.1094 50.744 29.9868 51.528C30.8828 52.312 31.8068 52.844 32.7588 53.124V45.704C31.2654 44.92 30.0801 44.2573 29.2028 43.716C28.3441 43.1747 27.5974 42.5307 26.9628 41.784C26.3468 41.0187 26.0388 40.1787 26.0388 39.264C26.0388 38.4053 26.3841 37.4813 27.0748 36.492C27.7841 35.5027 28.6614 34.6347 29.7068 33.888C30.7708 33.1413 31.7881 32.684 32.7588 32.516V27.42H34.6348V32.488C35.8108 32.5813 37.0334 32.7493 38.3028 32.992C39.5908 33.2347 40.5334 33.496 41.1308 33.776V39.488H39.4508C37.9948 36.9307 36.3801 35.3907 34.6068 34.868V42.064L35.5588 42.568C36.9214 43.2773 38.0321 43.9027 38.8908 44.444C39.7494 44.9853 40.4774 45.62 41.0748 46.348C41.6721 47.0573 41.9708 47.86 41.9708 48.756L41.9988 48.784ZM30.3228 37.864C30.3228 38.4427 30.5281 38.984 30.9388 39.488C31.3681 39.992 31.9748 40.496 32.7588 41V34.756C31.9934 34.8867 31.3961 35.232 30.9668 35.792C30.5374 36.352 30.3228 37.0427 30.3228 37.864ZM34.6348 53.348C35.5681 53.2733 36.3148 52.928 36.8748 52.312C37.4348 51.696 37.7148 50.996 37.7148 50.212C37.7148 49.596 37.4441 49.0173 36.9028 48.476C36.3801 47.916 35.6241 47.3467 34.6348 46.768V53.348ZM53.0083 47.804C54.7069 48.7 55.9016 49.512 56.5923 50.24C57.3016 50.9493 57.6562 51.752 57.6562 52.648C57.6562 54.6267 56.6576 56.3907 54.6603 57.94C52.6629 59.4893 49.4709 60.9733 45.0843 62.392L44.5802 60.768C46.9696 59.9093 48.7803 59.1533 50.0123 58.5C51.2629 57.8467 52.1403 57.1747 52.6443 56.484C53.1483 55.7933 53.4003 54.9533 53.4003 53.964C53.4003 53.18 53.1296 52.4987 52.5883 51.92C52.0656 51.3227 51.0856 50.6133 49.6483 49.792V48.812C50.6563 47.7293 51.3376 46.8893 51.6923 46.292C52.0469 45.6947 52.2243 45.0787 52.2243 44.444C52.2243 43.5293 51.9629 42.792 51.4403 42.232C50.9176 41.6533 50.2456 41.364 49.4243 41.364C48.3976 41.364 46.9789 42.008 45.1683 43.296L44.3283 42.036L48.3043 38.872C48.7523 38.7227 49.1909 38.648 49.6203 38.648C50.8523 38.648 51.9909 38.8347 53.0363 39.208C54.1003 39.5813 54.9403 40.0947 55.5563 40.748C56.1723 41.3827 56.4803 42.0827 56.4803 42.848C56.4056 43.5947 56.0976 44.3413 55.5563 45.088C55.0336 45.8347 54.1843 46.74 53.0083 47.804ZM63.3562 44.836C66.1562 45.956 68.3029 46.9453 69.7962 47.804C71.3082 48.6627 72.3536 49.4747 72.9322 50.24C73.5109 51.0053 73.8002 51.8547 73.8002 52.788C73.8002 54.412 73.1842 55.8307 71.9522 57.044C70.7389 58.2573 69.2362 59.256 67.4442 60.04C65.6522 60.8427 63.5242 61.6267 61.0602 62.392L60.5842 60.768C63.1042 59.8907 64.9989 59.116 66.2682 58.444C67.5376 57.772 68.3962 57.1093 68.8442 56.456C69.2922 55.8213 69.5162 55.0373 69.5162 54.104C69.5162 53.376 69.3016 52.732 68.8722 52.172C68.4616 51.612 67.6589 51.0053 66.4642 50.352C65.2882 49.68 63.5336 48.8773 61.2002 47.944L63.1042 38.928H71.2802L72.2042 36.576L73.3242 36.94V43.38L71.5042 42.876H63.7202L63.3282 44.836H63.3562ZM87.2698 38.648C88.7818 38.648 90.1351 38.9933 91.3298 39.684C92.5244 40.3747 93.4578 41.3173 94.1298 42.512C94.8018 43.688 95.1378 45.004 95.1378 46.46C95.1378 48.028 94.6244 49.4933 93.5978 50.856C92.5711 52.2 91.2831 53.2733 89.7337 54.076C88.2031 54.8787 86.7191 55.28 85.2818 55.28C83.7698 55.28 82.4164 54.9347 81.2218 54.244C80.0271 53.5533 79.0938 52.6107 78.4218 51.416C77.7498 50.2213 77.4138 48.896 77.4138 47.44C77.4138 45.8907 77.9271 44.444 78.9538 43.1C79.9804 41.7373 81.2684 40.6547 82.8178 39.852C84.3671 39.0493 85.8511 38.648 87.2698 38.648ZM85.6458 41.28C82.9951 41.28 81.6698 42.8853 81.6698 46.096C81.6698 47.3093 81.8658 48.4107 82.2578 49.4C82.6498 50.3893 83.2378 51.1827 84.0218 51.78C84.8058 52.3587 85.7671 52.648 86.9058 52.648C89.5564 52.648 90.8818 51.024 90.8818 47.776C90.8818 46.5813 90.6858 45.4987 90.2938 44.528C89.9018 43.5387 89.3138 42.7547 88.5298 42.176C87.7458 41.5787 86.7844 41.28 85.6458 41.28ZM28.2383 64.432C30.2916 64.432 32.1023 64.908 33.6703 65.86C35.257 66.812 36.4796 68.128 37.3383 69.808C38.197 71.488 38.6263 73.392 38.6263 75.52C38.6263 77.704 37.973 79.72 36.6663 81.568C35.3596 83.416 33.7356 84.8813 31.7943 85.964C29.853 87.028 28.005 87.56 26.2503 87.56C24.2156 87.56 22.4143 87.0933 20.8463 86.16C19.2783 85.208 18.0556 83.892 17.1783 82.212C16.3196 80.532 15.8903 78.628 15.8903 76.5C15.8903 74.316 16.5436 72.3 17.8503 70.452C19.157 68.5853 20.7716 67.12 22.6943 66.056C24.6356 64.9733 26.4836 64.432 28.2383 64.432ZM26.6143 67.12C25.457 67.12 24.4023 67.4653 23.4503 68.156C22.4983 68.8467 21.7423 69.808 21.1823 71.04C20.641 72.272 20.3703 73.644 20.3703 75.156C20.3703 76.9293 20.641 78.5533 21.1823 80.028C21.7423 81.484 22.5823 82.6507 23.7023 83.528C24.8223 84.4053 26.213 84.844 27.8743 84.844C29.0316 84.844 30.0863 84.4987 31.0383 83.808C32.009 83.1173 32.765 82.1653 33.3063 80.952C33.8663 79.72 34.1463 78.348 34.1463 76.836C34.1463 75.044 33.8663 73.42 33.3063 71.964C32.765 70.4893 31.925 69.3133 30.7863 68.436C29.6663 67.5587 28.2756 67.12 26.6143 67.12ZM61.653 68.268V87H59.749L46.533 70.9V84.116L49.893 85.6L49.193 87H41.997V85.852L44.629 83.724V68.016L41.661 66.392L42.361 64.992H46.869L59.749 80.644V67.82L56.417 66.392L57.117 64.992H64.313V66.14L61.653 68.268ZM83.9911 87H66.7431V85.852L69.3751 83.78V67.288L66.4071 66.392L67.1071 64.992H76.1791V66.14L73.5191 68.212V85.376H80.3791L84.5791 79.244L85.6991 79.664V87.504L83.9911 87ZM97.4016 84.676L100.426 85.6L99.7256 87H90.7096V85.852L93.3416 83.78V79.3L86.0336 67.596L83.8496 66.392L84.4376 64.992H93.3696V66.14L90.9616 67.988L96.3096 76.556L101.826 68.24L97.4856 66.392L98.1856 64.992H106.922V66.14L104.458 67.764L97.4016 78.488V84.676Z" fill="#26486B"/>
</svg>
